<?xml version="1.0" encoding="UTF-8" standalone="no"?>
<!-- Created with Inkscape (http://www.inkscape.org/) -->

<svg
   width="512"
   height="512"
   viewBox="0 0 135.46666 135.46667"
   version="1.1"
   id="svg1"
   xmlns="http://www.w3.org/2000/svg"
   xmlns:svg="http://www.w3.org/2000/svg">
  <defs
     id="defs1">
    <linearGradient
       id="swatch66">
      <stop
         style="stop-color:#000000;stop-opacity:1;"
         offset="0"
         id="stop66" />
    </linearGradient>
    <linearGradient
       id="swatch43">
      <stop
         style="stop-color:#000000;stop-opacity:0.09500489;"
         offset="0"
         id="stop43" />
    </linearGradient>
  </defs>
  <circle
     style="fill:#000000;fill-opacity:1;fill-rule:evenodd;stroke:none;stroke-width:0.862126;stroke-linecap:round;stroke-dasharray:none;stroke-opacity:1;paint-order:markers fill stroke"
     id="path81"
     cx="67.73333"
     cy="67.73333"
     r="67.73333" />
  <path
     id="path75"
     style="fill:#aa4400;fill-opacity:1;fill-rule:evenodd;stroke:none;stroke-width:0.752663;stroke-linecap:round;stroke-dasharray:none;stroke-opacity:1;paint-order:markers fill stroke"
     d="m 67.725262,14.901334 a 52.831997,52.831997 0 0 0 -52.832,52.831999 52.831997,52.831997 0 0 0 52.832,52.832007 A 52.831997,52.831997 0 0 0 120.07317,74.500177 47.548796,47.548796 0 0 1 73.008381,115.28222 47.548796,47.548796 0 0 1 25.459501,67.733333 47.548796,47.548796 0 0 1 73.008381,20.184453 47.548796,47.548796 0 0 1 120.50003,65.398716 52.831997,52.831997 0 0 0 67.725262,14.901334 Z" />
  <path
     id="path76"
     style="fill:#d45500;fill-opacity:1;fill-rule:evenodd;stroke:none;stroke-width:0.639764;stroke-linecap:round;stroke-dasharray:none;stroke-opacity:1;paint-order:markers fill stroke"
     d="M 77.900195,112.64054 A 44.907197,44.907197 0 0 0 122.8074,67.733337 44.907197,44.907197 0 0 0 77.900195,22.826134 44.907197,44.907197 0 0 0 33.404479,61.98152 40.416477,40.416477 0 0 1 73.409544,27.316789 40.416477,40.416477 0 0 1 113.8261,67.733337 40.416477,40.416477 0 0 1 73.409544,108.14988 40.416477,40.416477 0 0 1 33.041647,69.717761 44.907197,44.907197 0 0 0 77.900195,112.64054 Z" />
  <path
     id="path77"
     style="fill:#ff6600;fill-opacity:1;fill-rule:evenodd;stroke:none;stroke-width:0.543799;stroke-linecap:round;stroke-dasharray:none;stroke-opacity:1;paint-order:markers fill stroke"
     d="M 69.313878,29.562214 A 38.171117,38.171117 0 0 0 31.142756,67.733333 38.171117,38.171117 0 0 0 69.313878,105.90446 38.171117,38.171117 0 0 0 107.13524,72.622378 34.354006,34.354006 0 0 1 73.130931,102.0874 34.354006,34.354006 0 0 1 38.776863,67.733333 34.354006,34.354006 0 0 1 73.130931,33.379271 34.354006,34.354006 0 0 1 107.44365,66.046573 38.171117,38.171117 0 0 0 69.313878,29.562214 Z" />
  <path
     id="path78"
     style="fill:#ff7f2a;fill-opacity:1;fill-rule:evenodd;stroke:none;stroke-width:0.462229;stroke-linecap:round;stroke-dasharray:none;stroke-opacity:1;paint-order:markers fill stroke"
     d="M 76.612251,100.17879 A 32.44545,32.445449 0 0 0 109.0577,67.733337 32.44545,32.445449 0 0 0 76.612251,35.287882 32.44545,32.445449 0 0 0 44.464094,63.577649 29.200904,29.200904 0 0 1 73.367756,38.532377 29.200904,29.200904 0 0 1 102.56871,67.733337 29.200904,29.200904 0 0 1 73.367756,96.934292 29.200904,29.200904 0 0 1 44.201943,69.167083 32.44545,32.445449 0 0 0 76.612251,100.17879 Z" />
  <path
     id="path79"
     style="fill:#ff9955;fill-opacity:1;fill-rule:evenodd;stroke:none;stroke-width:0.392895;stroke-linecap:round;stroke-dasharray:none;stroke-opacity:1;paint-order:markers fill stroke"
     d="M 70.40863,40.154699 A 27.578632,27.578632 0 0 0 42.829995,67.733333 27.578632,27.578632 0 0 0 70.40863,95.31197 27.578632,27.578632 0 0 0 97.734563,71.265669 24.820768,24.820768 0 0 1 73.166451,92.554149 24.820768,24.820768 0 0 1 48.345638,67.733333 24.820768,24.820768 0 0 1 73.166451,42.912521 24.820768,24.820768 0 0 1 97.957393,66.514649 27.578632,27.578632 0 0 0 70.40863,40.154699 Z" />
  <path
     id="path80"
     style="fill:#ffb380;fill-opacity:1;fill-rule:evenodd;stroke:none;stroke-width:0.33396;stroke-linecap:round;stroke-dasharray:none;stroke-opacity:1;paint-order:markers fill stroke"
     d="M 75.681709,91.175175 A 23.441838,23.441837 0 0 0 99.12355,67.733337 23.441838,23.441837 0 0 0 75.681709,44.291495 23.441838,23.441837 0 0 0 52.454667,64.730851 21.097653,21.097653 0 0 1 73.337562,46.635643 21.097653,21.097653 0 0 1 94.435253,67.733337 21.097653,21.097653 0 0 1 73.337562,88.831027 21.097653,21.097653 0 0 1 52.265259,68.769218 23.441838,23.441837 0 0 0 75.681709,91.175175 Z" />
</svg>
