<svg
   version="1.1"
   id="Layer_1"
   x="0"
   y="0"
   viewBox="0 0 2665.9 3000"
   style="enable-background:new 0 0 2665.9 3000"
   xml:space="preserve"
   sodipodi:docname="favicon.svg"
   inkscape:version="1.3 (0e150ed6c4, 2023-07-21)"
   xmlns:inkscape="http://www.inkscape.org/namespaces/inkscape"
   xmlns:sodipodi="http://sodipodi.sourceforge.net/DTD/sodipodi-0.dtd"
   xmlns="http://www.w3.org/2000/svg"
   xmlns:svg="http://www.w3.org/2000/svg"><defs
     id="defs5" /><sodipodi:namedview
     id="namedview5"
     pagecolor="#ffffff"
     bordercolor="#999999"
     borderopacity="1"
     inkscape:showpageshadow="0"
     inkscape:pageopacity="0"
     inkscape:pagecheckerboard="0"
     inkscape:deskcolor="#d1d1d1"
     inkscape:zoom="0.271"
     inkscape:cx="1736.1624"
     inkscape:cy="1500"
     inkscape:window-width="1920"
     inkscape:window-height="1009"
     inkscape:window-x="1912"
     inkscape:window-y="-8"
     inkscape:window-maximized="1"
     inkscape:current-layer="Layer_1" /><style
     id="style1">.st3{fill:#fff}</style><path
     d="M2632 2250c20.9-36.2 33.9-77.1 33.9-113.7V863.7c0-36.7-13-77.5-33.9-113.7l-1299 750 1299 750z"
     style="fill:#57599c;fill-opacity:1"
     id="path1" /><path
     d="m1448.4 2972.5 1102.1-636.3c31.7-18.3 60.6-50 81.5-86.2l-1299-750L34 2250c20.9 36.2 49.8 67.9 81.5 86.2l1102.1 636.3c63.4 36.7 167.3 36.7 230.8 0z"
     style="fill:#444482;fill-opacity:1"
     id="path2" /><path
     d="M2632 750c-20.9-36.2-49.8-67.9-81.5-86.2L1448.4 27.5c-63.5-36.7-167.4-36.7-230.9 0L115.4 663.8C51.9 700.4 0 790.4 0 863.7v1272.6c0 36.7 13 77.5 33.9 113.7l1299-750L2632 750z"
     style="fill:#9b9ad2;fill-opacity:1"
     id="path3" /><text
     xml:space="preserve"
     style="font-size:2305.48px;font-family:'Colonna MT';-inkscape-font-specification:'Colonna MT, Normal';fill:#ffffff;fill-rule:evenodd;stroke:#5b2617;stroke-width:0;stroke-linecap:round;paint-order:markers fill stroke;fill-opacity:1"
     x="236.43199"
     y="2248.0593"
     id="text5"><tspan
       id="tspan5"
       x="236.43199"
       y="2248.0593"
       sodipodi:role="line"
       style="font-style:normal;font-variant:normal;font-weight:normal;font-stretch:condensed;font-size:2305.48px;font-family:Arial;-inkscape-font-specification:'Arial, Condensed';font-variant-ligatures:normal;font-variant-caps:normal;font-variant-numeric:normal;font-variant-east-asian:normal;stroke-width:0;fill:#ffffff;fill-opacity:1">JS</tspan></text></svg>
